<svg xmlns="http://www.w3.org/2000/svg" viewBox="0 0 48 48" xmlns:xlink="http://www.w3.org/1999/xlink" xml:space="preserve" width="100%" height="100%"><path xmlns="http://www.w3.org/2000/svg" fill="#212121" d="M36.5 6a5.5 5.5 0 0 1 5.5 5.5v25a5.5 5.5 0 0 1-5.5 5.5h-25A5.5 5.5 0 0 1 6 36.5v-25A5.5 5.5 0 0 1 11.5 6zm0 3h-25A2.5 2.5 0 0 0 9 11.5v25a2.5 2.5 0 0 0 2.5 2.5h25a2.5 2.5 0 0 0 2.5-2.5v-25A2.5 2.5 0 0 0 36.5 9M19.504 25c1.932 0 3.5 1.568 3.5 3.5v4a3.5 3.5 0 0 1-3.5 3.5h-4a3.5 3.5 0 0 1-3.5-3.5v-4a3.5 3.5 0 0 1 3.5-3.5zm12.994 0a3.5 3.5 0 0 1 3.5 3.5v4A3.5 3.5 0 0 1 32.5 36h-4a3.5 3.5 0 0 1-3.5-3.5v-4c0-1.932 1.568-3.5 3.5-3.5h4ZM19.502 12c1.932 0 3.5 1.568 3.5 3.5v4a3.5 3.5 0 0 1-3.5 3.5h-4A3.5 3.5 0 0 1 12 19.5v-4c0-1.932 1.568-3.5 3.5-3.5zm12.994 0a3.5 3.5 0 0 1 3.5 3.5v4a3.5 3.5 0 0 1-3.5 3.5h-4a3.5 3.5 0 0 1-3.5-3.5v-4c0-1.932 1.568-3.5 3.5-3.5z" style="fill: rgb(73, 71, 186);"></path></svg>